PathFileType	4	(X/Y/Z)	HSS_squat5.trc
DataRate	CameraRate	NumFrames	NumMarkers	Units	OrigDataRate	OrigDataStartFrame	OrigNumFrames
120.0	120.0	8	44	mm	120.0	368	980
Frame#	Time		R.Shoulder		Offset		L.Shoulder		R.Elbow		R.Wrist.Radial		R.Wrist		R.Hand		L.Elbow		L.Wrist.Radial		L.Wrist		L.Hand		R.Hip		V.Sacral		L.PSIS		L.Hip		R.Thigh.Upper		R.Thigh.Front		R.Thigh.Rear		X.Shell.Lower.Thigh.Right		R.Knee.Lateral		R.Shank.Upper		R.Shank.Front		R.Shank.Rear		X.Shell.Lower.Shank.Right		R.Ankle.Lateral		R.Heel		R.Toe		L.Thigh.Upper		L.Thigh.Front		L.Thigh.Rear		X.Shell.Lower.Thigh.Left		L.Knee.Lateral		L.Shank.Upper		L.Shank.Front		L.Shank.Rear		X.Shell.Lower.Shank.Left		L.Ankle.Lateral		L.Heel		L.Toe		R.Troc		L.Troc		R.PSIS		L.ASIS		R.ASIS
			X1	Y1	Z1	X2	Y2	Z2	X3	Y3	Z3	X4	Y4	Z4	X5	Y5	Z5	X6	Y6	Z6	X7	Y7	Z7	X8	Y8	Z8	X9	Y9	Z9	X10	Y10	Z10	X11	Y11	Z11	X12	Y12	Z12	X13	Y13	Z13	X14	Y14	Z14	X15	Y15	Z15	X16	Y16	Z16	X17	Y17	Z17	X18	Y18	Z18	X19	Y19	Z19	X20	Y20	Z20	X21	Y21	Z21	X22	Y22	Z22	X23	Y23	Z23	X24	Y24	Z24	X25	Y25	Z25	X26	Y26	Z26	X27	Y27	Z27	X28	Y28	Z28	X29	Y29	Z29	X30	Y30	Z30	X31	Y31	Z31	X32	Y32	Z32	X33	Y33	Z33	X34	Y34	Z34	X35	Y35	Z35	X36	Y36	Z36	X37	Y37	Z37	X38	Y38	Z38	X39	Y39	Z39	X40	Y40	Z40	X41	Y41	Z41	X42	Y42	Z42	X43	Y43	Z43	X44	Y44	Z44

368	3.05833	136.97533	1484.41272	-73.45074	-143.67656	1383.55933	31.35652	-192.15529	1498.46155	-82.77657	306.56628	1338.32751	-350.50128	80.64180	1396.77844	-445.05203	101.52285	1432.76257	-509.41107	14.73900	1437.76721	-528.36755	-367.61600	1366.95093	-366.47861	-118.58254	1383.48401	-467.11499	-150.88747	1432.86572	-508.47931	-63.29806	1420.23608	-518.75458	124.10116	1033.06628	-135.27718	-28.16434	1020.22778	-19.68462	-68.56140	1025.73999	-22.76382	-174.77309	1032.38513	-142.28819	179.09198	696.52441	-169.89076	167.68781	657.24615	-203.08940	190.42290	659.31866	-145.61504	176.77240	624.76685	-173.08344	170.08278	518.49231	-109.43274	230.84442	379.00528	-90.03917	213.54141	333.77017	-119.47498	220.63594	341.12845	-59.01388	218.03345	300.62567	-83.02789	190.03291	71.95127	-81.19727	142.22589	33.08601	-41.36678	201.84808	31.60668	-237.33501	-221.25323	696.03235	-186.74902	-203.70369	644.53693	-205.66429	-238.34752	661.67493	-155.99504	-229.50508	625.84241	-181.63998	-216.84521	510.37347	-112.97649	-274.36789	316.12833	-78.75233	-261.23074	291.10431	-107.38988	-263.70190	275.69308	-49.12061	-269.79681	245.64680	-72.33940	-240.91753	75.63689	-94.56958	-196.79645	34.49211	-41.49483	-241.44623	32.65454	-240.63715	162.02682	899.97174	-143.80396	-213.15254	904.04388	-142.00623	15.36961	1022.63562	-19.80921	-132.14029	999.27002	-207.84894	92.75824	996.33868	-197.59537
369	3.06667	136.97363	1484.41638	-73.45630	-143.68352	1383.57910	31.30389	-192.15675	1498.47864	-82.84692	306.57248	1338.33325	-350.51428	80.63435	1396.81445	-445.08508	101.52313	1432.79797	-509.44199	14.73105	1437.81311	-528.40564	-367.62189	1366.96436	-366.52121	-118.61485	1383.51270	-467.21313	-150.90732	1432.88098	-508.58218	-63.31291	1420.29395	-518.80286	124.09589	1033.08044	-135.32428	-28.15503	1020.24359	-19.72763	-68.56762	1025.76709	-22.79630	-174.75748	1032.40979	-142.33096	179.09587	696.54205	-169.87286	167.70329	657.25018	-203.09402	190.45218	659.34015	-145.58221	176.80148	624.77606	-173.06810	170.11156	518.49615	-109.40618	230.86023	379.00305	-90.03949	213.55777	333.78525	-119.47631	220.63969	341.13644	-59.00227	218.02412	300.62531	-83.04063	190.03618	71.94035	-81.21380	142.23840	33.07417	-41.38639	201.87132	31.62134	-237.31024	-221.25455	696.03857	-186.75981	-203.72589	644.54346	-205.64735	-238.32289	661.67010	-156.02109	-229.48412	625.84625	-181.64774	-216.84370	510.37827	-112.99111	-274.35608	316.11826	-78.73364	-261.20859	291.09967	-107.40440	-263.69373	275.67798	-49.14447	-269.79767	245.63792	-72.35902	-240.92859	75.64980	-94.60680	-196.79649	34.49083	-41.49167	-241.44666	32.65010	-240.63228	162.04753	899.96777	-143.78891	-213.14221	904.05109	-142.01717	15.36834	1022.66119	-19.82195	-132.14662	999.28577	-207.85669	92.77386	996.32141	-197.61392
370	3.07500	136.99231	1484.44641	-73.51157	-143.68628	1383.59326	31.27010	-192.15479	1498.49084	-82.88352	306.57761	1338.34180	-350.55057	80.62640	1396.78503	-445.12704	101.53394	1432.82922	-509.44388	14.74905	1437.83154	-528.44476	-367.62225	1366.99207	-366.59146	-118.58527	1383.54053	-467.24484	-150.89932	1432.90283	-508.61420	-63.42955	1420.35095	-518.92889	124.13190	1033.09082	-135.35454	-28.14241	1020.25769	-19.75600	-68.55398	1025.77112	-22.82356	-174.74428	1032.40601	-142.36295	179.11514	696.51929	-169.85822	167.72055	657.24677	-203.11597	190.45271	659.32904	-145.54137	176.81679	624.75989	-173.08702	170.10843	518.50793	-109.42883	230.86557	379.00140	-90.03811	213.57086	333.78784	-119.49562	220.63559	341.13235	-59.02411	218.03316	300.59891	-83.02370	190.02161	71.93867	-81.19528	142.22699	33.08181	-41.39295	201.85294	31.59949	-237.32202	-221.25447	696.04022	-186.78302	-203.70338	644.50806	-205.65851	-238.31798	661.67651	-156.01544	-229.49847	625.82898	-181.65253	-216.83049	510.38141	-112.99866	-274.32706	316.11539	-78.76756	-261.17703	291.08731	-107.45448	-263.68762	275.69385	-49.16880	-269.78293	245.64226	-72.38734	-240.93138	75.67482	-94.61529	-196.78629	34.48191	-41.49932	-241.47604	32.65065	-240.66176	162.07376	899.96252	-143.79788	-213.12628	904.05212	-142.01350	15.39337	1022.67792	-19.86244	-132.12900	999.28223	-207.87956	92.79948	996.32886	-197.61194
371	3.08333	136.99310	1484.44775	-73.52177	-143.66383	1383.61340	31.20700	-192.14337	1498.49036	-82.91746	306.57309	1338.34448	-350.58307	80.61510	1396.83398	-445.17215	101.52437	1432.85278	-509.50266	14.74090	1437.87231	-528.49390	-367.61282	1367.00781	-366.59674	-118.61423	1383.54773	-467.31628	-150.89085	1432.91418	-508.66086	-63.37260	1420.40601	-518.94867	124.12839	1033.11255	-135.32898	-28.14979	1020.27643	-19.77153	-68.53825	1025.76489	-22.80528	-174.73260	1032.41846	-142.36824	179.12930	696.53003	-169.83578	167.76213	657.25201	-203.06340	190.46802	659.32990	-145.53407	176.83226	624.78711	-173.07066	170.11609	518.49225	-109.41449	230.87874	378.99750	-90.03757	213.56818	333.77109	-119.47102	220.65257	341.11609	-59.03563	218.03546	300.61188	-83.01385	190.01591	71.95133	-81.17803	142.21962	33.06862	-41.36542	201.85536	31.60094	-237.33780	-221.25403	696.02386	-186.76939	-203.71657	644.52295	-205.64865	-238.29829	661.67139	-156.01610	-229.49916	625.84326	-181.62270	-216.84676	510.37723	-113.01653	-274.29794	316.10791	-78.85419	-261.10544	291.07101	-107.50615	-263.67993	275.68912	-49.21674	-269.76126	245.62943	-72.44064	-240.94650	75.67364	-94.67713	-196.79004	34.47447	-41.47340	-241.46524	32.67801	-240.66060	162.10181	899.96228	-143.79958	-213.10225	904.05463	-142.02971	15.38597	1022.68634	-19.85333	-132.12534	999.27057	-207.89932	92.82369	996.34802	-197.60248
372	3.09167	136.97781	1484.45679	-73.54803	-143.66902	1383.61560	31.17135	-192.13818	1498.49121	-82.96085	306.56598	1338.35132	-350.61615	80.60662	1396.87524	-445.20593	101.52859	1432.87329	-509.54391	14.73974	1437.91602	-528.53992	-367.62454	1367.02576	-366.66724	-118.65628	1383.57495	-467.35449	-150.89604	1432.92676	-508.76535	-63.34438	1420.40442	-519.02155	124.16167	1033.11890	-135.32468	-28.12743	1020.26917	-19.77583	-68.50575	1025.77905	-22.86297	-174.71693	1032.42371	-142.38779	179.13406	696.53217	-169.79955	167.80493	657.25720	-203.07057	190.48053	659.34058	-145.53395	176.84889	624.78217	-173.03532	170.12479	518.49622	-109.39910	230.88210	378.99487	-90.03662	213.60126	333.75443	-119.46877	220.64415	341.11584	-59.02185	218.03352	300.59351	-83.02265	190.02621	71.92896	-81.20060	142.21298	33.06077	-41.37483	201.86913	31.59585	-237.32201	-221.24950	696.03491	-186.77243	-203.70573	644.52576	-205.66902	-238.29100	661.68201	-155.98491	-229.46243	625.84290	-181.62737	-216.85562	510.37543	-113.00240	-274.23383	316.10806	-78.94362	-260.98596	291.04013	-107.61726	-263.67447	275.66162	-49.27557	-269.72052	245.61462	-72.55695	-240.95509	75.71555	-94.71278	-196.78831	34.47807	-41.47540	-241.49683	32.73120	-240.62878	162.14857	899.96375	-143.81837	-213.10301	904.05151	-142.01950	15.40612	1022.69678	-19.86720	-132.11121	999.28424	-207.89304	92.84203	996.36871	-197.61760
373	3.10000	136.98685	1484.47900	-73.59632	-143.65381	1383.63989	31.11261	-192.11546	1498.49182	-83.01171	306.57001	1338.35510	-350.63287	80.59293	1396.87585	-445.27136	101.54247	1432.89124	-509.59067	14.76842	1437.93884	-528.62097	-367.59625	1367.06006	-366.73697	-118.67813	1383.60022	-467.44238	-150.90834	1432.94849	-508.85239	-63.37801	1420.40833	-519.07605	124.17729	1033.13196	-135.32825	-28.10821	1020.26965	-19.75662	-68.50779	1025.78345	-22.83128	-174.71248	1032.43933	-142.39233	179.17657	696.54602	-169.75618	167.81290	657.25891	-203.04161	190.50340	659.34540	-145.49472	176.87210	624.78870	-173.00194	170.15671	518.51160	-109.38684	230.89369	378.97610	-90.02898	213.59616	333.74622	-119.46201	220.65332	341.10825	-59.02251	218.02310	300.56924	-82.99538	190.04314	71.93368	-81.20996	142.21301	33.05978	-41.37807	201.86873	31.60667	-237.31168	-221.23764	696.04504	-186.74950	-203.71053	644.54059	-205.67078	-238.28049	661.68732	-155.96854	-229.46996	625.85059	-181.64023	-216.86543	510.38675	-113.01932	-274.17462	316.09729	-79.08274	-260.89465	291.02383	-107.71667	-263.66373	275.64023	-49.41153	-269.66016	245.59889	-72.70800	-241.00111	75.74717	-94.72260	-196.80292	34.47010	-41.47692	-241.54076	32.77135	-240.59143	162.18237	899.97766	-143.80919	-213.09500	904.06689	-142.02698	15.40079	1022.70337	-19.86193	-132.10580	999.28918	-207.89851	92.86103	996.38611	-197.59624
374	3.10833	136.99673	1484.51404	-73.63126	-143.63870	1383.64575	31.08663	-192.11064	1498.50220	-83.07287	306.56198	1338.34985	-350.68427	80.60505	1396.89575	-445.32849	101.55916	1432.89978	-509.65265	14.76548	1437.95947	-528.68671	-367.57193	1367.08765	-366.82208	-118.69191	1383.61877	-467.61182	-150.90808	1432.96899	-508.93414	-63.43011	1420.43201	-519.20764	124.19009	1033.14697	-135.32997	-28.10417	1020.26422	-19.76600	-68.49981	1025.77209	-22.85611	-174.70641	1032.43518	-142.40146	179.16730	696.53656	-169.74623	167.81854	657.25928	-203.03691	190.51787	659.34198	-145.46136	176.91881	624.79901	-173.04138	170.15875	518.50360	-109.39066	230.90987	378.96109	-90.03876	213.62712	333.73819	-119.45190	220.65930	341.10614	-59.01947	218.03566	300.57495	-83.01066	190.05409	71.94912	-81.17606	142.23528	33.07383	-41.36544	201.87868	31.58865	-237.30786	-221.23526	696.05084	-186.75565	-203.69734	644.54199	-205.66840	-238.27861	661.71326	-155.99695	-229.45935	625.85913	-181.62500	-216.86259	510.37994	-113.06833	-274.11597	316.09543	-79.25638	-260.84448	291.02921	-107.84527	-263.66763	275.65512	-49.53669	-269.64276	245.60443	-72.82880	-241.00821	75.76382	-94.74046	-196.80493	34.45787	-41.49083	-241.56985	32.79557	-240.58867	162.23198	899.95227	-143.77989	-213.08821	904.07489	-142.02646	15.39997	1022.69843	-19.84599	-132.06538	999.30951	-207.89685	92.89146	996.39026	-197.57355
375	3.11667	136.99855	1484.53613	-73.68404	-143.64397	1383.66748	31.02365	-192.09460	1498.51367	-83.16476	306.54770	1338.34265	-350.72101	80.55158	1396.86121	-445.38477	101.53922	1432.89417	-509.68185	14.77424	1437.95911	-528.75598	-367.55206	1367.09619	-366.87155	-118.69475	1383.62756	-467.73215	-150.87616	1432.97278	-509.06870	-63.37592	1420.43604	-519.30280	124.19315	1033.15381	-135.30785	-28.10382	1020.27234	-19.74171	-68.47377	1025.78455	-22.83712	-174.70702	1032.43567	-142.36763	179.18126	696.54205	-169.71208	167.84271	657.26019	-203.02602	190.51814	659.33795	-145.42830	176.93095	624.79755	-172.96617	170.20651	518.48145	-109.36377	230.93170	378.94037	-90.01601	213.63744	333.72894	-119.42368	220.66550	341.07465	-59.02402	218.03122	300.54535	-82.99371	190.07162	71.93353	-81.23322	142.25206	33.04658	-41.37066	201.89369	31.60682	-237.31154	-221.24120	696.06647	-186.75696	-203.68810	644.58002	-205.68478	-238.27805	661.72418	-156.01387	-229.46619	625.87329	-181.64487	-216.86591	510.36349	-113.15099	-274.12125	316.08435	-79.42365	-260.79193	291.00528	-107.99136	-263.67722	275.64023	-49.69261	-269.63324	245.60753	-72.95853	-241.00447	75.72340	-94.78372	-196.80161	34.45682	-41.47818	-241.58546	32.83202	-240.58145	162.27484	899.96698	-143.76932	-213.09517	904.08759	-142.03249	15.41871	1022.71777	-19.85383	-132.07198	999.30634	-207.90541	92.89955	996.38843	-197.57304
